<svg xmlns="http://www.w3.org/2000/svg" width="616" height="315" fill="none" viewBox="0 0 616 315"><path fill="#8BC441" d="M12.192 179.208c3.83 10.03 10.625 18.583 18.503 25.193 7.95 6.687 17.058 11.585 26.382 15.707-10.77 1.632-22.117-1.789-30.574-9.254-8.385-7.464-13.661-18.817-14.24-30.48"/><path fill="#F3982C" d="M111.215 56.04c-.361-.854-1.084-1.399-1.735-1.943a43.6 43.6 0 0 0-13.516-6.687l-6.288-.622c-.579 5.598-1.157 11.274-.434 16.795.289 2.488.867 4.977 2.385 6.843.361.466.795.855 1.301 1.01.434.078.795 0 1.229-.077 6.144-1.555 11.854-5.365 15.829-10.653.868-1.322 1.807-3.11 1.229-4.665"/><path fill="#F7A430" d="M87.001 37.846c2.275 0 4.12-1.984 4.12-4.432s-1.844-4.432-4.12-4.432-4.12 1.984-4.12 4.432 1.845 4.432 4.12 4.432"/><path fill="#FC3" d="M115.118 33.414c-.434-1.244-1.012-2.489-2.096-3.188-1.518-.933-3.47-.311-4.987.622-3.253 2.022-5.566 5.365-8.24 8.164-2.675 2.8-8.24 6.998-10.12 7.776.217 1.244 15.252 3.966 19.805 8.942 3.036 3.343 4.048 8.398 3.181 12.985 3.108-2.566 4.409-6.842 5.059-10.964 1.157-8.164.289-16.64-2.602-24.337"/><path fill="#4163AE" d="M95.602 10.631c-7.3-2.488-15.178-1.555-22.768-.7-8.095.933-16.118 1.866-24.213 2.877-4.265.467-8.674 1.011-12.722-.544C31.852 10.709 28.31 6.51 28.816 2c-1.373 4.588-2.602 9.564-1.373 14.23 1.734 6.686 7.95 10.652 14.528 11.74C23.756 51.065 9.228 134.654 69.799 189.628c-43.585-57.307-35.562-110.181-32.31-125.5 1.518-7.153 4.41-15.395 8.818-22.704 9.47-15.707 24.865-19.984 24.865-19.984 11.42-3.343 21.829-2.8 26.093-1.4 4.265 1.4 10.697 4.044 12.215 8.554l.434-.467c-.362-8.32-7.011-15.007-14.312-17.495"/><path fill="#CCDB2A" d="M136.802 162.645c-12.143-16.173-29.996-25.737-47.632-33.591l-9.686-3.499c5.132 13.063 15.757 22.394 26.527 30.247 10.769 7.854 22.262 14.93 30.647 25.816s12.938 26.748 7.444 39.578c9.903-17.884 4.915-42.377-7.3-58.551"/><path fill="#02B3B1" d="M84.905 176.642c3.975 31.724-10.77 66.948-34.55 82.422 14.023-1.556 27.611-12.131 35.056-27.293 7.445-15.163 8.601-34.446 2.891-49.92"/><path fill="#00B3DC" d="M85.122 176.952c13.01 36.313 11.71 80.868-5.493 111.426 17.274-2.955 29.128-23.016 30.213-44.166 1.012-21.15-12.65-56.296-24.937-67.648"/><path fill="#A274B2" d="M92.06 177.03c20.89 41.6 31.226 89.576 29.419 135.919 12.721-18.351 14.456-45.332 8.24-69.204s-19.516-45.021-34.478-63.371"/><path fill="#E92D7B" d="M114.468 167.077c-7.084-6.764-15.035-12.13-21.685-19.516-6.65-7.387-11.998-17.574-11.275-28.226l-.578-7.854c-7.156 15.785-1.807 36.235 7.661 50.542 9.541 14.307 22.624 24.494 33.9 36.857s21.322 28.614 21.25 46.654c1.518-29.392-9.758-59.717-29.273-78.457"/><path fill="#6DCDE1" d="M84.327 79.29c-8.24.233-16.624-2.177-22.985-7.698-9.18 16.096-13.444 42.378-12.288 60.417 1.157 19.128 9.613 40.511 21.829 54.585-9.758-32.346-6.144-80.556 13.444-107.304"/><path fill="#2BA7DF" d="M55.415 68.56c-4.915-5.365-7.806-12.597-7.445-19.75-6.939 16.095-10.553 33.668-10.408 51.164.216 25.115 8.167 50.075 22.479 70.68-7.59-16.951-13.01-34.99-13.95-53.496-.94-16.563 1.879-33.669 9.324-48.598"/><path fill="#02B3B1" d="M72.762 22.839c-8.746 6.92-13.516 17.262-12.07 26.36s8.962 16.795 19.298 19.516c-6.433 3.188-13.95.855-18.431-3.188-15.107-13.53.216-37.168 10.842-42.61"/><path fill="#3DB54A" d="M77.677 215.053c-1.518-21.072-15.106-31.88-29.346-37.323-7.734-2.955-16.046-3.266-24.141-4.588S7.71 169.255 2 163.034c4.77 19.361 10.408 40.122 25.226 52.252 11.565 9.487 27.828 11.819 41.272 5.988.867-.389 1.806-.856 2.096-1.789.216-.699.072-1.477-.145-2.177-3.47-11.586-13.66-19.594-24.358-23.405 7.878-1.321 19.082.311 31.514 21.15"/><path fill="#8BC441" d="M139.982 114.903c-8.095-17.885-25.37-32.036-43.223-29.704l-2.313 1.634c10.625 2.099 23.419 5.598 34.188 32.968-15.468-22.238-28.044-28.77-39.248-29.392l-.94.622c-9.902 2.177-14.961 15.863-12.07 26.593 2.963 10.731 11.637 18.351 20.817 23.016s19.226 7.076 28.55 11.353c9.324 4.354 18.359 11.197 22.335 21.538.795-19.905.072-40.744-8.096-58.628"/><path fill="#CCDB2A" d="M89.965 102.384c-3.903 2.255-6.505 6.92-6.433 11.664.144 5.054 3.252 9.875 7.661 11.663-4.336-6.687-4.77-16.018-1.228-23.327"/><path fill="#fff" d="m202.748 147.107-9.37-24.208q-1.012-2.478-2.023-6.258a57 57 0 0 1-1.012 3.476 41 41 0 0 1-.968 2.869l-9.326 24.121zm18.521 23.251h-7.215q-1.232 0-2.024-.608a3.4 3.4 0 0 1-1.143-1.565l-5.587-14.472h-27.846l-5.587 14.472q-.309.826-1.144 1.522-.836.651-2.024.651h-7.214l25.163-62.41h9.458zm27.111-32.335q3.606 0 6.334-.869 2.772-.869 4.62-2.434 1.847-1.608 2.771-3.781.924-2.216.924-4.867 0-5.39-3.607-8.128-3.564-2.738-10.734-2.738h-8.842v22.817zm29.474 32.335h-8.359q-2.507 0-3.651-1.955l-15.617-21.644q-.748-1.086-1.627-1.521-.88-.478-2.64-.478h-6.114v25.598h-9.371v-62.41h18.213q6.114 0 10.514 1.261 4.442 1.216 7.302 3.52 2.904 2.26 4.267 5.476 1.407 3.216 1.408 7.215 0 3.259-1.012 6.128a16.1 16.1 0 0 1-2.991 5.172q-1.936 2.26-4.751 3.911t-6.379 2.521q1.76 1.043 3.035 2.912zm50.536-54.674h-20.06v54.674h-9.326v-54.674h-20.148v-7.736h49.534zm19.82 54.674h-9.414v-62.41h9.414zm49.593-52.24c-.292.493-.602.855-.922 1.087q-.486.347-1.232.347-.79 0-1.805-.695-1.01-.739-2.551-1.608-1.495-.913-3.608-1.608-2.11-.74-5.057-.739-2.772 0-4.885.739c-1.376.463-2.537 1.115-3.473 1.956a8.15 8.15 0 0 0-2.157 2.912q-.704 1.651-.704 3.607 0 2.52 1.277 4.172 1.32 1.652 3.431 2.825 2.112 1.173 4.794 2.043c1.791.579 3.621 1.188 5.5 1.825a53 53 0 0 1 5.497 2.13q2.687 1.217 4.797 3.085 2.113 1.826 3.386 4.52 1.32 2.652 1.32 6.52 0 4.128-1.45 7.736a18 18 0 0 1-4.136 6.302q-2.727 2.694-6.732 4.259-3.959 1.521-9.016 1.521-3.037 0-5.895-.609a29 29 0 0 1-5.413-1.608 30 30 0 0 1-4.793-2.564 24.6 24.6 0 0 1-3.959-3.39l2.681-4.433q.397-.522.926-.869a2.4 2.4 0 0 1 1.274-.348q.924 0 2.112.956a53 53 0 0 0 2.991 2.13q1.805 1.13 4.269 2.086 2.507.956 6.071.956 2.9 0 5.191-.739c1.523-.521 2.801-1.245 3.825-2.173a9.55 9.55 0 0 0 2.421-3.433q.834-1.999.834-4.433-.001-2.738-1.274-4.477-1.277-1.737-3.389-2.911-2.11-1.174-4.793-2c-1.791-.55-3.621-1.115-5.501-1.695a60 60 0 0 1-5.497-2.086 18.1 18.1 0 0 1-4.797-3.042q-2.112-1.913-3.385-4.737-1.278-2.87-1.278-7.041 0-3.347 1.32-6.476a16.3 16.3 0 0 1 3.829-5.519q2.55-2.434 6.247-3.868 3.695-1.478 8.446-1.478 5.322 0 9.766 1.695 4.486 1.652 7.785 4.781zm59.561-2.434h-20.06v54.674h-9.326v-54.674H407.83v-7.736h49.534zm28.309 22.339q3.611 0 6.334-.869 2.773-.869 4.621-2.434a10.3 10.3 0 0 0 2.77-3.781q.925-2.216.926-4.867-.001-5.39-3.608-8.128-3.563-2.738-10.734-2.738h-8.844v22.817zm29.474 32.335h-8.359q-2.508 0-3.649-1.955l-15.619-21.644c-.496-.724-1.041-1.231-1.626-1.521q-.88-.478-2.639-.478h-6.117v25.598h-9.368v-62.41h18.212q6.115 0 10.513 1.261 4.445 1.216 7.302 3.52 2.903 2.26 4.269 5.476 1.406 3.216 1.408 7.215 0 3.259-1.014 6.128a16 16 0 0 1-2.991 5.172q-1.932 2.26-4.751 3.911-2.814 1.651-6.377 2.521 1.76 1.043 3.033 2.912zm48.643-7.518-.045 7.518h-39.152v-62.41h39.152v7.519h-29.738v19.775h23.931v7.258h-23.931v20.34zm52.096 0-.042 7.518h-39.152v-62.41h39.152v7.519h-29.738v19.775h23.931v7.258h-23.931v20.34z"/></svg>